<mxfile host="app.diagrams.net" modified="2024-03-02T16:01:34.673Z" agent="Mozilla/5.0 (Windows NT 10.0; Win64; x64) AppleWebKit/537.36 (KHTML, like Gecko) Chrome/122.0.0.0 Safari/537.36" etag="QGJEeSbh-Ldqez7mXlRs" version="24.0.0" type="device">
  <diagram name="Página-1" id="SrWvhiI7-UcSUbpZ43rC">
    <mxGraphModel dx="2062" dy="684" grid="1" gridSize="10" guides="1" tooltips="1" connect="1" arrows="1" fold="1" page="1" pageScale="1" pageWidth="827" pageHeight="1169" math="0" shadow="0">
      <root>
        <mxCell id="0" />
        <mxCell id="1" parent="0" />
        <mxCell id="OsvRj8Ey0yu-5x5lteY_-1" value="Artigo Científico" style="rounded=0;whiteSpace=wrap;html=1;" vertex="1" parent="1">
          <mxGeometry x="70" y="270" width="120" height="60" as="geometry" />
        </mxCell>
        <mxCell id="OsvRj8Ey0yu-5x5lteY_-6" style="edgeStyle=orthogonalEdgeStyle;rounded=0;orthogonalLoop=1;jettySize=auto;html=1;exitX=0.5;exitY=1;exitDx=0;exitDy=0;entryX=0.5;entryY=0;entryDx=0;entryDy=0;endArrow=none;endFill=0;" edge="1" parent="1" source="OsvRj8Ey0yu-5x5lteY_-2" target="OsvRj8Ey0yu-5x5lteY_-1">
          <mxGeometry relative="1" as="geometry">
            <mxPoint x="25" y="265" as="sourcePoint" />
            <mxPoint x="130" y="315" as="targetPoint" />
            <Array as="points">
              <mxPoint x="25" y="240" />
              <mxPoint x="130" y="240" />
            </Array>
          </mxGeometry>
        </mxCell>
        <mxCell id="OsvRj8Ey0yu-5x5lteY_-2" value="Título" style="ellipse;whiteSpace=wrap;html=1;" vertex="1" parent="1">
          <mxGeometry y="200" width="50" height="20" as="geometry" />
        </mxCell>
        <mxCell id="OsvRj8Ey0yu-5x5lteY_-7" value="" style="edgeStyle=orthogonalEdgeStyle;rounded=0;orthogonalLoop=1;jettySize=auto;html=1;endArrow=none;endFill=0;" edge="1" parent="1" source="OsvRj8Ey0yu-5x5lteY_-3" target="OsvRj8Ey0yu-5x5lteY_-1">
          <mxGeometry relative="1" as="geometry" />
        </mxCell>
        <mxCell id="OsvRj8Ey0yu-5x5lteY_-3" value="&lt;u&gt;Número de registo&lt;/u&gt;" style="ellipse;whiteSpace=wrap;html=1;" vertex="1" parent="1">
          <mxGeometry x="-80" y="285" width="120" height="30" as="geometry" />
        </mxCell>
        <mxCell id="OsvRj8Ey0yu-5x5lteY_-8" value="" style="endArrow=none;html=1;rounded=0;exitX=1;exitY=0.5;exitDx=0;exitDy=0;entryX=0;entryY=0.5;entryDx=0;entryDy=0;shape=link;" edge="1" parent="1" source="OsvRj8Ey0yu-5x5lteY_-1" target="OsvRj8Ey0yu-5x5lteY_-9">
          <mxGeometry width="50" height="50" relative="1" as="geometry">
            <mxPoint x="260" y="330" as="sourcePoint" />
            <mxPoint x="380" y="300" as="targetPoint" />
          </mxGeometry>
        </mxCell>
        <mxCell id="OsvRj8Ey0yu-5x5lteY_-11" value="" style="edgeStyle=orthogonalEdgeStyle;rounded=0;orthogonalLoop=1;jettySize=auto;html=1;endArrow=none;endFill=0;" edge="1" parent="1" source="OsvRj8Ey0yu-5x5lteY_-9" target="OsvRj8Ey0yu-5x5lteY_-10">
          <mxGeometry relative="1" as="geometry" />
        </mxCell>
        <mxCell id="OsvRj8Ey0yu-5x5lteY_-9" value="Tem" style="rhombus;whiteSpace=wrap;html=1;" vertex="1" parent="1">
          <mxGeometry x="246" y="260" width="80" height="80" as="geometry" />
        </mxCell>
        <mxCell id="OsvRj8Ey0yu-5x5lteY_-10" value="Autor" style="rounded=0;whiteSpace=wrap;html=1;" vertex="1" parent="1">
          <mxGeometry x="390" y="270" width="120" height="60" as="geometry" />
        </mxCell>
        <mxCell id="OsvRj8Ey0yu-5x5lteY_-13" value="" style="edgeStyle=orthogonalEdgeStyle;rounded=0;orthogonalLoop=1;jettySize=auto;html=1;endArrow=none;endFill=0;" edge="1" parent="1" source="OsvRj8Ey0yu-5x5lteY_-12" target="OsvRj8Ey0yu-5x5lteY_-10">
          <mxGeometry relative="1" as="geometry" />
        </mxCell>
        <mxCell id="OsvRj8Ey0yu-5x5lteY_-12" value="Nome" style="ellipse;whiteSpace=wrap;html=1;" vertex="1" parent="1">
          <mxGeometry x="390" y="180" width="60" height="30" as="geometry" />
        </mxCell>
        <mxCell id="OsvRj8Ey0yu-5x5lteY_-15" value="" style="edgeStyle=orthogonalEdgeStyle;rounded=0;orthogonalLoop=1;jettySize=auto;html=1;endArrow=none;endFill=0;" edge="1" parent="1" source="OsvRj8Ey0yu-5x5lteY_-14" target="OsvRj8Ey0yu-5x5lteY_-10">
          <mxGeometry relative="1" as="geometry">
            <Array as="points">
              <mxPoint x="510" y="240" />
              <mxPoint x="480" y="240" />
            </Array>
          </mxGeometry>
        </mxCell>
        <mxCell id="OsvRj8Ey0yu-5x5lteY_-14" value="&lt;u&gt;Email&lt;/u&gt;" style="ellipse;whiteSpace=wrap;html=1;" vertex="1" parent="1">
          <mxGeometry x="480" y="180" width="60" height="30" as="geometry" />
        </mxCell>
        <mxCell id="OsvRj8Ey0yu-5x5lteY_-17" value="" style="edgeStyle=orthogonalEdgeStyle;rounded=0;orthogonalLoop=1;jettySize=auto;html=1;endArrow=none;endFill=0;shape=link;" edge="1" parent="1" source="OsvRj8Ey0yu-5x5lteY_-23" target="OsvRj8Ey0yu-5x5lteY_-10">
          <mxGeometry relative="1" as="geometry">
            <mxPoint x="670" y="300" as="sourcePoint" />
          </mxGeometry>
        </mxCell>
        <mxCell id="OsvRj8Ey0yu-5x5lteY_-18" value="N" style="text;html=1;align=center;verticalAlign=middle;resizable=0;points=[];autosize=1;strokeColor=none;fillColor=none;" vertex="1" parent="1">
          <mxGeometry x="367" y="276" width="30" height="30" as="geometry" />
        </mxCell>
        <mxCell id="OsvRj8Ey0yu-5x5lteY_-21" value="M" style="text;html=1;align=center;verticalAlign=middle;resizable=0;points=[];autosize=1;strokeColor=none;fillColor=none;" vertex="1" parent="1">
          <mxGeometry x="184" y="295" width="30" height="30" as="geometry" />
        </mxCell>
        <mxCell id="OsvRj8Ey0yu-5x5lteY_-60" style="edgeStyle=orthogonalEdgeStyle;rounded=0;orthogonalLoop=1;jettySize=auto;html=1;exitX=0.5;exitY=1;exitDx=0;exitDy=0;entryX=0.5;entryY=0;entryDx=0;entryDy=0;endArrow=none;endFill=0;shape=link;" edge="1" parent="1" source="OsvRj8Ey0yu-5x5lteY_-61" target="OsvRj8Ey0yu-5x5lteY_-57">
          <mxGeometry relative="1" as="geometry">
            <Array as="points">
              <mxPoint x="400" y="410" />
            </Array>
          </mxGeometry>
        </mxCell>
        <mxCell id="OsvRj8Ey0yu-5x5lteY_-63" style="edgeStyle=orthogonalEdgeStyle;rounded=0;orthogonalLoop=1;jettySize=auto;html=1;exitX=0.75;exitY=1;exitDx=0;exitDy=0;endArrow=none;endFill=0;shape=link;" edge="1" parent="1" source="OsvRj8Ey0yu-5x5lteY_-22">
          <mxGeometry relative="1" as="geometry">
            <mxPoint x="758" y="430" as="targetPoint" />
            <Array as="points">
              <mxPoint x="758" y="330" />
            </Array>
          </mxGeometry>
        </mxCell>
        <mxCell id="OsvRj8Ey0yu-5x5lteY_-22" value="Instituição" style="rounded=0;whiteSpace=wrap;html=1;" vertex="1" parent="1">
          <mxGeometry x="670" y="270" width="120" height="60" as="geometry" />
        </mxCell>
        <mxCell id="OsvRj8Ey0yu-5x5lteY_-24" value="" style="edgeStyle=orthogonalEdgeStyle;rounded=0;orthogonalLoop=1;jettySize=auto;html=1;endArrow=none;endFill=0;" edge="1" parent="1" target="OsvRj8Ey0yu-5x5lteY_-23">
          <mxGeometry relative="1" as="geometry">
            <mxPoint x="670" y="300" as="sourcePoint" />
            <mxPoint x="510" y="300" as="targetPoint" />
          </mxGeometry>
        </mxCell>
        <mxCell id="OsvRj8Ey0yu-5x5lteY_-23" value="Tem" style="rhombus;whiteSpace=wrap;html=1;" vertex="1" parent="1">
          <mxGeometry x="550" y="260" width="80" height="80" as="geometry" />
        </mxCell>
        <mxCell id="OsvRj8Ey0yu-5x5lteY_-31" value="" style="edgeStyle=orthogonalEdgeStyle;rounded=0;orthogonalLoop=1;jettySize=auto;html=1;endArrow=none;endFill=0;" edge="1" parent="1" source="OsvRj8Ey0yu-5x5lteY_-27" target="OsvRj8Ey0yu-5x5lteY_-22">
          <mxGeometry relative="1" as="geometry" />
        </mxCell>
        <mxCell id="OsvRj8Ey0yu-5x5lteY_-27" value="&lt;u&gt;Nome&lt;/u&gt;" style="ellipse;whiteSpace=wrap;html=1;" vertex="1" parent="1">
          <mxGeometry x="660" y="190" width="70" height="30" as="geometry" />
        </mxCell>
        <mxCell id="OsvRj8Ey0yu-5x5lteY_-30" value="" style="edgeStyle=orthogonalEdgeStyle;rounded=0;orthogonalLoop=1;jettySize=auto;html=1;endArrow=none;endFill=0;" edge="1" parent="1" source="OsvRj8Ey0yu-5x5lteY_-28" target="OsvRj8Ey0yu-5x5lteY_-22">
          <mxGeometry relative="1" as="geometry">
            <Array as="points">
              <mxPoint x="805" y="250" />
              <mxPoint x="760" y="250" />
            </Array>
          </mxGeometry>
        </mxCell>
        <mxCell id="OsvRj8Ey0yu-5x5lteY_-28" value="Endereço" style="ellipse;whiteSpace=wrap;html=1;" vertex="1" parent="1">
          <mxGeometry x="770" y="200" width="70" height="30" as="geometry" />
        </mxCell>
        <mxCell id="OsvRj8Ey0yu-5x5lteY_-32" value="1" style="text;html=1;align=center;verticalAlign=middle;resizable=0;points=[];autosize=1;strokeColor=none;fillColor=none;" vertex="1" parent="1">
          <mxGeometry x="648" y="276" width="30" height="30" as="geometry" />
        </mxCell>
        <mxCell id="OsvRj8Ey0yu-5x5lteY_-33" value="N" style="text;html=1;align=center;verticalAlign=middle;resizable=0;points=[];autosize=1;strokeColor=none;fillColor=none;" vertex="1" parent="1">
          <mxGeometry x="503" y="277" width="30" height="30" as="geometry" />
        </mxCell>
        <mxCell id="OsvRj8Ey0yu-5x5lteY_-34" value="Participantes" style="rounded=0;whiteSpace=wrap;html=1;" vertex="1" parent="1">
          <mxGeometry x="668" y="540" width="120" height="60" as="geometry" />
        </mxCell>
        <mxCell id="OsvRj8Ey0yu-5x5lteY_-36" value="" style="edgeStyle=orthogonalEdgeStyle;rounded=0;orthogonalLoop=1;jettySize=auto;html=1;endArrow=none;endFill=0;" edge="1" parent="1" source="OsvRj8Ey0yu-5x5lteY_-35" target="OsvRj8Ey0yu-5x5lteY_-34">
          <mxGeometry relative="1" as="geometry">
            <Array as="points">
              <mxPoint x="725" y="650" />
              <mxPoint x="725" y="650" />
            </Array>
          </mxGeometry>
        </mxCell>
        <mxCell id="OsvRj8Ey0yu-5x5lteY_-35" value="Nome" style="ellipse;whiteSpace=wrap;html=1;" vertex="1" parent="1">
          <mxGeometry x="690" y="820" width="70" height="30" as="geometry" />
        </mxCell>
        <mxCell id="OsvRj8Ey0yu-5x5lteY_-44" value="" style="edgeStyle=orthogonalEdgeStyle;rounded=0;orthogonalLoop=1;jettySize=auto;html=1;endArrow=none;endFill=0;entryX=0.25;entryY=1;entryDx=0;entryDy=0;" edge="1" parent="1" source="OsvRj8Ey0yu-5x5lteY_-37" target="OsvRj8Ey0yu-5x5lteY_-34">
          <mxGeometry relative="1" as="geometry">
            <mxPoint x="788" y="590" as="targetPoint" />
            <Array as="points">
              <mxPoint x="760" y="785" />
              <mxPoint x="760" y="600" />
            </Array>
          </mxGeometry>
        </mxCell>
        <mxCell id="OsvRj8Ey0yu-5x5lteY_-37" value="Morada" style="ellipse;whiteSpace=wrap;html=1;" vertex="1" parent="1">
          <mxGeometry x="799" y="770" width="70" height="30" as="geometry" />
        </mxCell>
        <mxCell id="OsvRj8Ey0yu-5x5lteY_-45" value="" style="edgeStyle=orthogonalEdgeStyle;rounded=0;orthogonalLoop=1;jettySize=auto;html=1;endArrow=none;endFill=0;" edge="1" parent="1" source="OsvRj8Ey0yu-5x5lteY_-38" target="OsvRj8Ey0yu-5x5lteY_-34">
          <mxGeometry relative="1" as="geometry">
            <Array as="points">
              <mxPoint x="820" y="735" />
              <mxPoint x="820" y="590" />
            </Array>
          </mxGeometry>
        </mxCell>
        <mxCell id="OsvRj8Ey0yu-5x5lteY_-38" value="&lt;u&gt;Email&lt;/u&gt;" style="ellipse;whiteSpace=wrap;html=1;" vertex="1" parent="1">
          <mxGeometry x="850" y="720" width="70" height="30" as="geometry" />
        </mxCell>
        <mxCell id="OsvRj8Ey0yu-5x5lteY_-46" value="" style="edgeStyle=orthogonalEdgeStyle;rounded=0;orthogonalLoop=1;jettySize=auto;html=1;entryX=0.25;entryY=1;entryDx=0;entryDy=0;endArrow=none;endFill=0;" edge="1" parent="1" source="OsvRj8Ey0yu-5x5lteY_-39" target="OsvRj8Ey0yu-5x5lteY_-34">
          <mxGeometry relative="1" as="geometry">
            <Array as="points">
              <mxPoint x="630" y="690" />
              <mxPoint x="700" y="690" />
              <mxPoint x="700" y="600" />
            </Array>
          </mxGeometry>
        </mxCell>
        <mxCell id="OsvRj8Ey0yu-5x5lteY_-39" value="Data de Inscrição" style="ellipse;whiteSpace=wrap;html=1;" vertex="1" parent="1">
          <mxGeometry x="596" y="790" width="80" height="40" as="geometry" />
        </mxCell>
        <mxCell id="OsvRj8Ey0yu-5x5lteY_-41" value="" style="edgeStyle=orthogonalEdgeStyle;rounded=0;orthogonalLoop=1;jettySize=auto;html=1;endArrow=none;endFill=0;" edge="1" parent="1" source="OsvRj8Ey0yu-5x5lteY_-40" target="OsvRj8Ey0yu-5x5lteY_-34">
          <mxGeometry relative="1" as="geometry">
            <Array as="points">
              <mxPoint x="850" y="675" />
              <mxPoint x="850" y="570" />
            </Array>
          </mxGeometry>
        </mxCell>
        <mxCell id="OsvRj8Ey0yu-5x5lteY_-40" value="Instituição" style="ellipse;whiteSpace=wrap;html=1;" vertex="1" parent="1">
          <mxGeometry x="905" y="660" width="70" height="30" as="geometry" />
        </mxCell>
        <mxCell id="OsvRj8Ey0yu-5x5lteY_-47" value="" style="endArrow=none;html=1;rounded=0;exitX=0;exitY=0.5;exitDx=0;exitDy=0;shape=link;entryX=1;entryY=0.5;entryDx=0;entryDy=0;" edge="1" parent="1" source="OsvRj8Ey0yu-5x5lteY_-34" target="OsvRj8Ey0yu-5x5lteY_-55">
          <mxGeometry width="50" height="50" relative="1" as="geometry">
            <mxPoint x="860" y="530" as="sourcePoint" />
            <mxPoint x="870" y="570" as="targetPoint" />
          </mxGeometry>
        </mxCell>
        <mxCell id="OsvRj8Ey0yu-5x5lteY_-55" value="IS-A&amp;nbsp; &amp;nbsp;&amp;nbsp;" style="triangle;whiteSpace=wrap;html=1;rotation=0;" vertex="1" parent="1">
          <mxGeometry x="504" y="530" width="60" height="80" as="geometry" />
        </mxCell>
        <mxCell id="OsvRj8Ey0yu-5x5lteY_-56" value="" style="endArrow=none;html=1;rounded=0;exitX=0;exitY=0.5;exitDx=0;exitDy=0;" edge="1" parent="1" source="OsvRj8Ey0yu-5x5lteY_-55" target="OsvRj8Ey0yu-5x5lteY_-57">
          <mxGeometry width="50" height="50" relative="1" as="geometry">
            <mxPoint x="690" y="530" as="sourcePoint" />
            <mxPoint x="430" y="570" as="targetPoint" />
            <Array as="points">
              <mxPoint x="400" y="570" />
            </Array>
          </mxGeometry>
        </mxCell>
        <mxCell id="OsvRj8Ey0yu-5x5lteY_-57" value="Estudante" style="rounded=0;whiteSpace=wrap;html=1;" vertex="1" parent="1">
          <mxGeometry x="340" y="460" width="120" height="60" as="geometry" />
        </mxCell>
        <mxCell id="OsvRj8Ey0yu-5x5lteY_-58" value="Não Estudante" style="rounded=0;whiteSpace=wrap;html=1;" vertex="1" parent="1">
          <mxGeometry x="340" y="630" width="120" height="60" as="geometry" />
        </mxCell>
        <mxCell id="OsvRj8Ey0yu-5x5lteY_-59" value="" style="endArrow=none;html=1;rounded=0;exitX=-0.01;exitY=0.617;exitDx=0;exitDy=0;exitPerimeter=0;entryX=0.5;entryY=0;entryDx=0;entryDy=0;" edge="1" parent="1" source="OsvRj8Ey0yu-5x5lteY_-55" target="OsvRj8Ey0yu-5x5lteY_-58">
          <mxGeometry width="50" height="50" relative="1" as="geometry">
            <mxPoint x="690" y="530" as="sourcePoint" />
            <mxPoint x="400" y="580" as="targetPoint" />
            <Array as="points">
              <mxPoint x="400" y="580" />
            </Array>
          </mxGeometry>
        </mxCell>
        <mxCell id="OsvRj8Ey0yu-5x5lteY_-62" value="" style="edgeStyle=orthogonalEdgeStyle;rounded=0;orthogonalLoop=1;jettySize=auto;html=1;exitX=0.5;exitY=1;exitDx=0;exitDy=0;entryX=0.5;entryY=0;entryDx=0;entryDy=0;endArrow=none;endFill=0;" edge="1" parent="1" source="OsvRj8Ey0yu-5x5lteY_-22" target="OsvRj8Ey0yu-5x5lteY_-61">
          <mxGeometry relative="1" as="geometry">
            <mxPoint x="730" y="330" as="sourcePoint" />
            <mxPoint x="400" y="460" as="targetPoint" />
            <Array as="points">
              <mxPoint x="730" y="410" />
            </Array>
          </mxGeometry>
        </mxCell>
        <mxCell id="OsvRj8Ey0yu-5x5lteY_-68" style="edgeStyle=orthogonalEdgeStyle;rounded=0;orthogonalLoop=1;jettySize=auto;html=1;exitX=1;exitY=1;exitDx=0;exitDy=0;endArrow=none;endFill=0;" edge="1" parent="1" source="OsvRj8Ey0yu-5x5lteY_-61" target="OsvRj8Ey0yu-5x5lteY_-69">
          <mxGeometry relative="1" as="geometry">
            <mxPoint x="580" y="460" as="targetPoint" />
            <Array as="points">
              <mxPoint x="570" y="430" />
              <mxPoint x="570" y="480" />
            </Array>
          </mxGeometry>
        </mxCell>
        <mxCell id="OsvRj8Ey0yu-5x5lteY_-61" value="Passa&amp;nbsp;&lt;div&gt;Certificado&lt;/div&gt;" style="rhombus;whiteSpace=wrap;html=1;" vertex="1" parent="1">
          <mxGeometry x="484" y="370" width="80" height="80" as="geometry" />
        </mxCell>
        <mxCell id="OsvRj8Ey0yu-5x5lteY_-65" style="edgeStyle=orthogonalEdgeStyle;rounded=0;orthogonalLoop=1;jettySize=auto;html=1;exitX=0.5;exitY=1;exitDx=0;exitDy=0;entryX=0.75;entryY=0;entryDx=0;entryDy=0;endArrow=none;endFill=0;" edge="1" parent="1" source="OsvRj8Ey0yu-5x5lteY_-64" target="OsvRj8Ey0yu-5x5lteY_-34">
          <mxGeometry relative="1" as="geometry" />
        </mxCell>
        <mxCell id="OsvRj8Ey0yu-5x5lteY_-64" value="Tem" style="rhombus;whiteSpace=wrap;html=1;" vertex="1" parent="1">
          <mxGeometry x="718" y="410" width="80" height="80" as="geometry" />
        </mxCell>
        <mxCell id="OsvRj8Ey0yu-5x5lteY_-66" value="" style="endArrow=none;html=1;rounded=0;entryX=0.5;entryY=1;entryDx=0;entryDy=0;exitX=0.5;exitY=0;exitDx=0;exitDy=0;" edge="1" parent="1" source="OsvRj8Ey0yu-5x5lteY_-67" target="OsvRj8Ey0yu-5x5lteY_-58">
          <mxGeometry width="50" height="50" relative="1" as="geometry">
            <mxPoint x="400" y="740" as="sourcePoint" />
            <mxPoint x="450" y="580" as="targetPoint" />
          </mxGeometry>
        </mxCell>
        <mxCell id="OsvRj8Ey0yu-5x5lteY_-67" value="Referência&lt;div&gt;Transação&lt;/div&gt;" style="ellipse;whiteSpace=wrap;html=1;" vertex="1" parent="1">
          <mxGeometry x="355" y="740" width="90" height="40" as="geometry" />
        </mxCell>
        <mxCell id="OsvRj8Ey0yu-5x5lteY_-69" value="Localização&lt;div&gt;eletrónica do&lt;/div&gt;&lt;div&gt;comprovativo&lt;/div&gt;" style="ellipse;whiteSpace=wrap;html=1;" vertex="1" parent="1">
          <mxGeometry x="600" y="450" width="100" height="60" as="geometry" />
        </mxCell>
        <mxCell id="OsvRj8Ey0yu-5x5lteY_-70" value="N" style="text;html=1;align=center;verticalAlign=middle;resizable=0;points=[];autosize=1;strokeColor=none;fillColor=none;" vertex="1" parent="1">
          <mxGeometry x="751" y="517" width="30" height="30" as="geometry" />
        </mxCell>
        <mxCell id="OsvRj8Ey0yu-5x5lteY_-71" value="1" style="text;html=1;align=center;verticalAlign=middle;resizable=0;points=[];autosize=1;strokeColor=none;fillColor=none;" vertex="1" parent="1">
          <mxGeometry x="752" y="325" width="30" height="30" as="geometry" />
        </mxCell>
        <mxCell id="OsvRj8Ey0yu-5x5lteY_-72" value="N" style="text;html=1;align=center;verticalAlign=middle;resizable=0;points=[];autosize=1;strokeColor=none;fillColor=none;" vertex="1" parent="1">
          <mxGeometry x="374" y="436" width="30" height="30" as="geometry" />
        </mxCell>
        <mxCell id="OsvRj8Ey0yu-5x5lteY_-73" value="1" style="text;html=1;align=center;verticalAlign=middle;resizable=0;points=[];autosize=1;strokeColor=none;fillColor=none;" vertex="1" parent="1">
          <mxGeometry x="707" y="325" width="30" height="30" as="geometry" />
        </mxCell>
      </root>
    </mxGraphModel>
  </diagram>
</mxfile>
